<svg width="18" height="26" viewBox="0 0 18 26" fill="none" xmlns="http://www.w3.org/2000/svg">
<path d="M8.0625 24.473C8.48438 25.1292 9.46875 25.1292 9.89062 24.473C16.7344 14.6292 18 13.598 18 9.94171C18 4.97296 13.9688 0.941711 9 0.941711C3.98438 0.941711 0 4.97296 0 9.94171C0 13.598 1.21875 14.6292 8.0625 24.473ZM9 13.6917C6.89062 13.6917 5.25 12.0511 5.25 9.94171C5.25 7.87921 6.89062 6.19171 9 6.19171C11.0625 6.19171 12.75 7.87921 12.75 9.94171C12.75 12.0511 11.0625 13.6917 9 13.6917Z" fill="#FF7474"/>
</svg>
