<svg width="15" height="15" viewBox="0 0 15 15" fill="none" xmlns="http://www.w3.org/2000/svg">
<path d="M13.8086 12.305L11.0742 9.57062C10.9375 9.46124 10.7734 9.37921 10.6094 9.37921H10.1719C10.9102 8.42218 11.375 7.21906 11.375 5.87921C11.375 2.76202 8.80469 0.191711 5.6875 0.191711C2.54297 0.191711 0 2.76202 0 5.87921C0 9.02374 2.54297 11.5667 5.6875 11.5667C7 11.5667 8.20312 11.1292 9.1875 10.3636V10.8284C9.1875 10.9925 9.24219 11.1566 9.37891 11.2933L12.0859 14.0003C12.3594 14.2737 12.7695 14.2737 13.0156 14.0003L13.7812 13.2347C14.0547 12.9886 14.0547 12.5784 13.8086 12.305ZM5.6875 9.37921C3.74609 9.37921 2.1875 7.82062 2.1875 5.87921C2.1875 3.96515 3.74609 2.37921 5.6875 2.37921C7.60156 2.37921 9.1875 3.96515 9.1875 5.87921C9.1875 7.82062 7.60156 9.37921 5.6875 9.37921Z" fill="white"/>
</svg>
