<svg width="153" height="192" viewBox="0 0 153 192" fill="none" xmlns="http://www.w3.org/2000/svg">
<g filter="url(#filter0_dd_241_53)">
<path d="M43.6874 21H109.312C110.574 21 111.593 22.0198 111.594 23.2812V128.718C111.594 129.582 111.104 130.368 110.343 130.753L110.186 130.825L110.182 130.827C109.36 131.173 108.365 130.995 107.7 130.33C105.052 127.682 100.809 127.599 98.0614 130.082L97.8007 130.33C96.9653 131.165 95.644 131.218 94.7479 130.487L94.5751 130.33C91.9269 127.682 87.6842 127.599 84.9364 130.082L84.6757 130.33C83.8403 131.165 82.519 131.218 81.6229 130.487L81.4501 130.33C78.8019 127.682 74.5592 127.599 71.8114 130.082L71.5507 130.33C70.7153 131.165 69.394 131.218 68.4979 130.487L68.3251 130.33C65.6769 127.682 61.4342 127.599 58.6864 130.082L58.4257 130.33C57.5903 131.165 56.269 131.218 55.3729 130.487L55.2001 130.33C52.552 127.682 48.3092 127.599 45.5614 130.082L45.3007 130.33C44.685 130.946 43.7804 131.153 42.9764 130.886L42.8173 130.826L42.8134 130.824L42.6581 130.753C41.8966 130.369 41.4063 129.582 41.4061 128.718V23.2812C41.4061 22.0199 42.426 21 43.6874 21Z" fill="url(#paint0_linear_241_53)" stroke="url(#paint1_linear_241_53)" stroke-width="2"/>
<path d="M76.5002 55.3029C74.6929 55.3029 73.2189 53.832 73.2189 52.0216C73.2189 50.2112 74.6929 48.7404 76.5002 48.7404C78.3075 48.7404 79.7814 50.2112 79.7814 52.0216C79.7814 53.8353 81.249 55.3029 83.0627 55.3029C84.8763 55.3029 86.3439 53.8353 86.3439 52.0216C86.3439 47.7494 83.5929 44.1414 79.7814 42.7823V38.8966C79.7814 37.0829 78.3138 35.6154 76.5002 35.6154C74.6865 35.6154 73.2189 37.0829 73.2189 38.8966V42.7823C69.4074 44.1414 66.6564 47.7494 66.6564 52.0216C66.6564 57.4497 71.0721 61.8654 76.5002 61.8654C78.3075 61.8654 79.7814 63.3362 79.7814 65.1466C79.7814 66.957 78.3075 68.4279 76.5002 68.4279C74.6929 68.4279 73.2189 66.957 73.2189 65.1466C73.2189 63.333 71.7513 61.8654 69.9377 61.8654C68.124 61.8654 66.6564 63.333 66.6564 65.1466C66.6564 69.4188 69.4074 73.0269 73.2189 74.3859V78.2716C73.2189 80.0853 74.6865 81.5529 76.5002 81.5529C78.3138 81.5529 79.7814 80.0853 79.7814 78.2716V74.3859C83.5929 73.0271 86.3439 69.4188 86.3439 65.1466C86.3439 59.7185 81.9285 55.3029 76.5002 55.3029ZM76.5002 88.1154H56.8127C54.999 88.1154 53.5314 89.583 53.5314 91.3966C53.5314 93.2103 54.999 94.6779 56.8127 94.6779H76.5002C78.3138 94.6779 79.7814 93.2103 79.7814 91.3966C79.7814 89.583 78.3138 88.1154 76.5002 88.1154ZM76.5002 101.24H56.8127C54.999 101.24 53.5314 102.708 53.5314 104.522C53.5314 106.335 54.999 107.803 56.8127 107.803H76.5002C78.3138 107.803 79.7814 106.335 79.7814 104.522C79.7814 102.708 78.3138 101.24 76.5002 101.24ZM89.6252 94.6779H96.1877C98.0013 94.6779 99.4689 93.2103 99.4689 91.3966C99.4689 89.583 98.0013 88.1154 96.1877 88.1154H89.6252C87.8115 88.1154 86.3439 89.583 86.3439 91.3966C86.3439 93.2103 87.8115 94.6779 89.6252 94.6779ZM96.1877 101.24H89.6252C87.8115 101.24 86.3439 102.708 86.3439 104.522C86.3439 106.335 87.8115 107.803 89.6252 107.803H96.1877C98.0013 107.803 99.4689 106.335 99.4689 104.522C99.4689 102.708 98.0013 101.24 96.1877 101.24Z" fill="white"/>
</g>
<defs>
<filter id="filter0_dd_241_53" x="0.406128" y="0" width="152.188" height="192" filterUnits="userSpaceOnUse" color-interpolation-filters="sRGB">
<feFlood flood-opacity="0" result="BackgroundImageFix"/>
<feColorMatrix in="SourceAlpha" type="matrix" values="0 0 0 0 0 0 0 0 0 0 0 0 0 0 0 0 0 0 127 0" result="hardAlpha"/>
<feOffset dy="20"/>
<feGaussianBlur stdDeviation="20"/>
<feColorMatrix type="matrix" values="0 0 0 0 1 0 0 0 0 0.680498 0 0 0 0 0 0 0 0 0.29 0"/>
<feBlend mode="normal" in2="BackgroundImageFix" result="effect1_dropShadow_241_53"/>
<feColorMatrix in="SourceAlpha" type="matrix" values="0 0 0 0 0 0 0 0 0 0 0 0 0 0 0 0 0 0 127 0" result="hardAlpha"/>
<feOffset dy="5"/>
<feGaussianBlur stdDeviation="5"/>
<feColorMatrix type="matrix" values="0 0 0 0 1 0 0 0 0 0.680498 0 0 0 0 0 0 0 0 0.26 0"/>
<feBlend mode="normal" in2="effect1_dropShadow_241_53" result="effect2_dropShadow_241_53"/>
<feBlend mode="normal" in="SourceGraphic" in2="effect2_dropShadow_241_53" result="shape"/>
</filter>
<linearGradient id="paint0_linear_241_53" x1="76.5" y1="-22.8026" x2="76.5" y2="169.452" gradientUnits="userSpaceOnUse">
<stop offset="0.630208" stop-color="#FFAE00"/>
<stop offset="1" stop-color="#FFCD1E"/>
</linearGradient>
<linearGradient id="paint1_linear_241_53" x1="76.5" y1="20" x2="76.5" y2="132" gradientUnits="userSpaceOnUse">
<stop stop-color="#FF9F00"/>
<stop offset="1" stop-color="#FFB800"/>
</linearGradient>
</defs>
</svg>
