<svg width="1917" height="136" viewBox="0 0 1917 136" fill="none" xmlns="http://www.w3.org/2000/svg">
<g filter="url(#filter0_dd_7_698)">
<rect width="1920" height="78" transform="translate(-3 -2)" fill="white"/>
<mask id="mask0_7_698" style="mask-type:alpha" maskUnits="userSpaceOnUse" x="217" y="22" width="28" height="30">
<path d="M225.894 48.3648C225.894 50.366 224.272 51.9883 222.271 51.9883C220.269 51.9883 218.647 50.366 218.647 48.3648C218.647 46.3635 220.269 44.7412 222.271 44.7412C224.272 44.7412 225.894 46.3635 225.894 48.3648Z" fill="#C4C4C4"/>
<path d="M243.353 48.3648C243.353 50.366 241.731 51.9883 239.73 51.9883C237.728 51.9883 236.106 50.366 236.106 48.3648C236.106 46.3635 237.728 44.7412 239.73 44.7412C241.731 44.7412 243.353 46.3635 243.353 48.3648Z" fill="#C4C4C4"/>
<path fill-rule="evenodd" clip-rule="evenodd" d="M242.191 45.7058C242.438 45.9344 242.409 46.3209 242.151 46.5363C240.78 47.6779 239.017 48.3646 237.094 48.3646H236.765C236.401 48.3646 236.1 48.0671 236.165 47.7091C236.474 46.0209 237.952 44.7412 239.73 44.7412C240.68 44.7412 241.545 45.1071 242.191 45.7058ZM244.099 44.1282C243.899 44.5093 243.384 44.543 243.05 44.2717C242.144 43.5354 240.988 43.0941 239.73 43.0941C237.041 43.0941 234.823 45.1066 234.5 47.7071C234.455 48.0682 234.164 48.3646 233.8 48.3646H228.2C227.836 48.3646 227.545 48.0682 227.501 47.7071C227.177 45.1066 224.959 43.0941 222.271 43.0941C221.012 43.0941 219.856 43.5354 218.95 44.2717C218.616 44.5431 218.101 44.5094 217.901 44.1283C217.326 43.0317 217 41.7833 217 40.4588V38.8116C217 38.4478 217.295 38.1528 217.659 38.1528H244.341C244.705 38.1528 245 38.4478 245 38.8116V40.4588C245 41.7832 244.674 43.0316 244.099 44.1282ZM245 35.8469C245 36.2108 244.705 36.5057 244.341 36.5057H217.659C217.295 36.5057 217 36.2108 217 35.8469V31.894C217 31.5301 217.295 31.2352 217.659 31.2352H244.341C244.705 31.2352 245 31.5301 245 31.894V35.8469ZM224.906 22.0117C220.883 22.0117 217.562 25.0164 217.064 28.904C217.017 29.2754 217.319 29.5881 217.693 29.5881H244.307C244.681 29.5881 244.983 29.2754 244.936 28.904C244.438 25.0164 241.117 22.0117 237.094 22.0117H224.906ZM222.271 44.7412C224.048 44.7412 225.526 46.0209 225.835 47.7091C225.9 48.0671 225.599 48.3646 225.235 48.3646H224.906C222.983 48.3646 221.22 47.6779 219.849 46.5363C219.591 46.321 219.562 45.9345 219.809 45.7059C220.455 45.1072 221.32 44.7412 222.271 44.7412Z" fill="#C4C4C4"/>
</mask>
<g mask="url(#mask0_7_698)">
<rect x="215.353" y="19.7059" width="33.6" height="10.8706" fill="url(#paint0_linear_7_698)"/>
<rect x="215.353" y="37.4941" width="33.6" height="16.4706" fill="#FFA833"/>
<rect x="215.353" y="30.5765" width="33.6" height="7.24706" rx="3.62353" fill="#F17228"/>
<rect x="193.941" y="44.7412" width="31.9529" height="7.24706" fill="#F58D00"/>
<rect x="236.106" y="44.7412" width="31.9529" height="7.24706" fill="#F58D00"/>
<ellipse cx="225.112" cy="24.8231" rx="1" ry="0.5" transform="rotate(-20.8548 225.112 24.8231)" fill="white"/>
<ellipse cx="231" cy="24.5" rx="1" ry="0.5" fill="white"/>
<ellipse cx="236.118" cy="24.9122" rx="1" ry="0.5" transform="rotate(28.1155 236.118 24.9122)" fill="white"/>
</g>
<path d="M259.3 48.6167V36.7637H257.247V33.3727L259.3 33.2172V32.3772C259.3 31.5683 259.393 30.8009 259.58 30.075C259.787 29.3491 260.119 28.7165 260.575 28.1773C261.032 27.6381 261.623 27.2129 262.349 26.9018C263.075 26.5907 263.956 26.4351 264.993 26.4351C265.636 26.4351 266.217 26.4973 266.735 26.6218C267.274 26.7462 267.72 26.8707 268.073 26.9951L267.233 30.355C266.652 30.1476 266.123 30.0439 265.646 30.0439C265.086 30.0439 264.651 30.2202 264.34 30.5728C264.029 30.9046 263.873 31.4646 263.873 32.2527V33.186H266.642V36.7637H263.873V48.6167H259.3ZM274.67 48.99C273.695 48.99 272.752 48.8137 271.839 48.4611C270.926 48.0878 270.118 47.559 269.412 46.8745C268.728 46.1901 268.178 45.3501 267.764 44.3546C267.349 43.3383 267.141 42.1873 267.141 40.9014C267.141 39.6155 267.349 38.4748 267.764 37.4792C268.178 36.463 268.728 35.6126 269.412 34.9282C270.118 34.2438 270.926 33.7253 271.839 33.3727C272.752 32.9994 273.695 32.8127 274.67 32.8127C275.645 32.8127 276.578 32.9994 277.47 33.3727C278.383 33.7253 279.181 34.2438 279.865 34.9282C280.571 35.6126 281.131 36.463 281.545 37.4792C281.96 38.4748 282.168 39.6155 282.168 40.9014C282.168 42.1873 281.96 43.3383 281.545 44.3546C281.131 45.3501 280.571 46.1901 279.865 46.8745C279.181 47.559 278.383 48.0878 277.47 48.4611C276.578 48.8137 275.645 48.99 274.67 48.99ZM274.67 45.2879C275.603 45.2879 276.309 44.8938 276.786 44.1057C277.263 43.3176 277.501 42.2495 277.501 40.9014C277.501 39.5533 277.263 38.4851 276.786 37.697C276.309 36.9089 275.603 36.5148 274.67 36.5148C273.716 36.5148 273 36.9089 272.523 37.697C272.067 38.4851 271.839 39.5533 271.839 40.9014C271.839 42.2495 272.067 43.3176 272.523 44.1057C273 44.8938 273.716 45.2879 274.67 45.2879ZM291.149 48.99C290.174 48.99 289.23 48.8137 288.318 48.4611C287.405 48.0878 286.596 47.559 285.891 46.8745C285.207 46.1901 284.657 45.3501 284.242 44.3546C283.827 43.3383 283.62 42.1873 283.62 40.9014C283.62 39.6155 283.827 38.4748 284.242 37.4792C284.657 36.463 285.207 35.6126 285.891 34.9282C286.596 34.2438 287.405 33.7253 288.318 33.3727C289.23 32.9994 290.174 32.8127 291.149 32.8127C292.124 32.8127 293.057 32.9994 293.949 33.3727C294.861 33.7253 295.66 34.2438 296.344 34.9282C297.049 35.6126 297.609 36.463 298.024 37.4792C298.439 38.4748 298.646 39.6155 298.646 40.9014C298.646 42.1873 298.439 43.3383 298.024 44.3546C297.609 45.3501 297.049 46.1901 296.344 46.8745C295.66 47.559 294.861 48.0878 293.949 48.4611C293.057 48.8137 292.124 48.99 291.149 48.99ZM291.149 45.2879C292.082 45.2879 292.787 44.8938 293.264 44.1057C293.741 43.3176 293.98 42.2495 293.98 40.9014C293.98 39.5533 293.741 38.4851 293.264 37.697C292.787 36.9089 292.082 36.5148 291.149 36.5148C290.195 36.5148 289.479 36.9089 289.002 37.697C288.546 38.4851 288.318 39.5533 288.318 40.9014C288.318 42.2495 288.546 43.3176 289.002 44.1057C289.479 44.8938 290.195 45.2879 291.149 45.2879ZM306.507 48.99C305.553 48.99 304.682 48.8034 303.894 48.43C303.127 48.0567 302.463 47.5278 301.903 46.8434C301.364 46.1383 300.939 45.2879 300.628 44.2924C300.337 43.2969 300.192 42.1665 300.192 40.9014C300.192 39.6362 300.368 38.5059 300.721 37.5104C301.094 36.5148 301.571 35.6749 302.152 34.9904C302.753 34.2853 303.438 33.746 304.205 33.3727C304.993 32.9994 305.792 32.8127 306.601 32.8127C307.472 32.8127 308.187 32.9579 308.747 33.2483C309.307 33.5386 309.857 33.9327 310.396 34.4304L310.21 32.0661V26.8085H314.783V48.6167H311.05L310.738 47.0923H310.614C310.075 47.6315 309.442 48.0878 308.716 48.4611C307.99 48.8137 307.254 48.99 306.507 48.99ZM307.69 45.2568C308.187 45.2568 308.633 45.1531 309.027 44.9457C309.442 44.7383 309.836 44.3753 310.21 43.8568V37.5415C309.795 37.1681 309.37 36.9089 308.934 36.7637C308.499 36.6185 308.073 36.5459 307.659 36.5459C306.933 36.5459 306.29 36.8985 305.73 37.6037C305.17 38.2881 304.89 39.3666 304.89 40.8392C304.89 42.3739 305.128 43.4939 305.605 44.1991C306.103 44.9042 306.798 45.2568 307.69 45.2568Z" fill="#F17228"/>
<path d="M321.879 46.6167H327.448L328.662 40.6747C328.942 39.2436 329.128 37.8747 329.377 36.1015H329.501C329.75 37.8747 329.999 39.2436 330.279 40.6747L331.524 46.6167H337.248L340.888 31.1549H336.439L335.07 38.1236C334.79 39.6169 334.666 41.1102 334.386 42.7901H334.261C333.981 41.1102 333.701 39.6169 333.359 38.1236L331.71 31.1549H327.448L325.862 38.1236C325.519 39.5858 325.271 41.1102 324.991 42.7901H324.866C324.648 41.1102 324.462 39.6169 324.213 38.1236L322.813 31.1549H318.053L321.879 46.6167ZM346.595 46.99C348.337 46.99 349.737 46.2123 351.013 45.0612H351.137L351.48 46.6167H355.4V37.8436C355.4 32.9904 353.16 30.7816 349.177 30.7816C346.751 30.7816 344.542 31.5594 342.52 32.8038L344.2 35.9148C345.755 35.0437 347 34.6082 348.244 34.6082C349.831 34.6082 350.484 35.3548 350.609 36.6303C344.511 37.2525 341.991 39.0258 341.991 42.2924C341.991 44.8745 343.764 46.99 346.595 46.99ZM348.244 43.2568C347.186 43.2568 346.595 42.8213 346.595 41.9191C346.595 40.8302 347.529 39.9902 350.609 39.5858V42.0435C349.862 42.7901 349.209 43.2568 348.244 43.2568ZM366.059 46.9221C364.905 46.9221 363.819 46.7525 362.801 46.4131C361.783 46.0567 360.892 45.5307 360.128 44.8349C359.382 44.1222 358.788 43.2398 358.347 42.1877C357.922 41.1187 357.71 39.8799 357.71 38.4715C357.71 37.08 357.931 35.8497 358.372 34.7807C358.813 33.6947 359.407 32.7868 360.154 32.0571C360.917 31.3105 361.8 30.742 362.801 30.3517C363.802 29.9614 364.854 29.7663 365.957 29.7663C367.179 29.7663 368.231 29.9869 369.113 30.4281C370.013 30.8523 370.759 31.3614 371.353 31.9553L369.063 34.7552C368.655 34.3989 368.223 34.1104 367.764 33.8898C367.323 33.6522 366.772 33.5334 366.11 33.5334C365.55 33.5334 365.032 33.6437 364.557 33.8643C364.082 34.0849 363.666 34.3989 363.31 34.8061C362.954 35.2134 362.674 35.714 362.47 36.3079C362.283 36.9018 362.19 37.5721 362.19 38.3188C362.19 39.8799 362.538 41.0763 363.234 41.9077C363.929 42.7392 365.024 43.155 366.517 43.155C366.755 43.155 366.984 43.1295 367.204 43.0786C367.442 43.0277 367.637 42.9514 367.79 42.8495V40.5587H365.346V36.9952H371.659V44.8858C371.065 45.4458 370.276 45.9294 369.292 46.3367C368.307 46.727 367.23 46.9221 366.059 46.9221ZM381.185 46.99C385.136 46.99 388.776 44.0034 388.776 38.8703C388.776 33.7371 385.136 30.7816 381.185 30.7816C377.265 30.7816 373.625 33.7371 373.625 38.8703C373.625 44.0034 377.265 46.99 381.185 46.99ZM381.185 43.1012C379.381 43.1012 378.541 41.4524 378.541 38.8703C378.541 36.3192 379.381 34.6393 381.185 34.6393C382.99 34.6393 383.83 36.3192 383.83 38.8703C383.83 41.4524 382.99 43.1012 381.185 43.1012ZM391.036 46.6167H395.827V36.257C396.791 35.3859 397.445 34.857 398.534 34.857C399.778 34.857 400.338 35.5104 400.338 37.657V46.6167H405.16V37.0348C405.16 33.1771 403.729 30.7816 400.369 30.7816C398.254 30.7816 396.698 31.8394 395.423 33.0838H395.298L394.956 31.1549H391.036V46.6167Z" fill="#FFB30E"/>
<path d="M1442.75 43.8242L1439.24 40.3086C1439.06 40.168 1438.85 40.0625 1438.64 40.0625H1438.08C1439.03 38.832 1439.62 37.2852 1439.62 35.5625C1439.62 31.5547 1436.32 28.25 1432.31 28.25C1428.27 28.25 1425 31.5547 1425 35.5625C1425 39.6055 1428.27 42.875 1432.31 42.875C1434 42.875 1435.55 42.3125 1436.81 41.3281V41.9258C1436.81 42.1367 1436.88 42.3477 1437.06 42.5234L1440.54 46.0039C1440.89 46.3555 1441.42 46.3555 1441.73 46.0039L1442.72 45.0195C1443.07 44.7031 1443.07 44.1758 1442.75 43.8242ZM1432.31 40.0625C1429.82 40.0625 1427.81 38.0586 1427.81 35.5625C1427.81 33.1016 1429.82 31.0625 1432.31 31.0625C1434.77 31.0625 1436.81 33.1016 1436.81 35.5625C1436.81 38.0586 1434.77 40.0625 1432.31 40.0625Z" fill="#FFB30E"/>
<path d="M1456.31 43.216C1455.54 43.216 1454.78 43.078 1454.01 42.802C1453.25 42.514 1452.57 42.088 1451.97 41.524L1453.49 39.706C1453.91 40.066 1454.37 40.36 1454.87 40.588C1455.39 40.816 1455.89 40.93 1456.38 40.93C1456.94 40.93 1457.34 40.828 1457.61 40.624C1457.88 40.42 1458.02 40.144 1458.02 39.796C1458.02 39.616 1457.98 39.46 1457.9 39.328C1457.82 39.196 1457.71 39.082 1457.55 38.986C1457.41 38.878 1457.23 38.782 1457.01 38.698C1456.81 38.602 1456.58 38.5 1456.33 38.392L1454.8 37.744C1454.5 37.624 1454.21 37.468 1453.92 37.276C1453.64 37.084 1453.39 36.862 1453.16 36.61C1452.95 36.346 1452.77 36.046 1452.64 35.71C1452.51 35.362 1452.44 34.972 1452.44 34.54C1452.44 34.06 1452.54 33.61 1452.75 33.19C1452.95 32.758 1453.24 32.386 1453.61 32.074C1453.98 31.75 1454.42 31.498 1454.93 31.318C1455.44 31.138 1456.01 31.048 1456.62 31.048C1457.3 31.048 1457.97 31.18 1458.63 31.444C1459.31 31.708 1459.89 32.092 1460.4 32.596L1459.05 34.27C1458.66 33.97 1458.28 33.742 1457.9 33.586C1457.51 33.418 1457.09 33.334 1456.62 33.334C1456.16 33.334 1455.8 33.43 1455.52 33.622C1455.26 33.802 1455.12 34.06 1455.12 34.396C1455.12 34.576 1455.17 34.732 1455.25 34.864C1455.35 34.984 1455.47 35.098 1455.63 35.206C1455.8 35.302 1455.99 35.398 1456.2 35.494C1456.42 35.578 1456.65 35.674 1456.91 35.782L1458.42 36.394C1459.14 36.682 1459.7 37.078 1460.11 37.582C1460.53 38.086 1460.74 38.752 1460.74 39.58C1460.74 40.072 1460.64 40.54 1460.43 40.984C1460.24 41.416 1459.95 41.8 1459.57 42.136C1459.2 42.46 1458.74 42.724 1458.18 42.928C1457.63 43.12 1457.01 43.216 1456.31 43.216ZM1466.51 43.216C1465.88 43.216 1465.28 43.114 1464.73 42.91C1464.18 42.694 1463.7 42.388 1463.29 41.992C1462.88 41.584 1462.56 41.092 1462.34 40.516C1462.11 39.94 1461.99 39.28 1461.99 38.536C1461.99 37.816 1462.11 37.168 1462.35 36.592C1462.59 36.004 1462.91 35.512 1463.29 35.116C1463.69 34.708 1464.14 34.396 1464.64 34.18C1465.14 33.964 1465.67 33.856 1466.21 33.856C1466.84 33.856 1467.39 33.964 1467.86 34.18C1468.34 34.396 1468.74 34.696 1469.05 35.08C1469.37 35.464 1469.61 35.92 1469.77 36.448C1469.93 36.964 1470 37.528 1470 38.14C1470 38.38 1469.99 38.608 1469.97 38.824C1469.94 39.04 1469.92 39.202 1469.9 39.31H1464.55C1464.67 39.958 1464.93 40.438 1465.34 40.75C1465.76 41.05 1466.27 41.2 1466.87 41.2C1467.51 41.2 1468.15 41.002 1468.8 40.606L1469.68 42.208C1469.22 42.52 1468.71 42.766 1468.15 42.946C1467.6 43.126 1467.05 43.216 1466.51 43.216ZM1464.53 37.564H1467.75C1467.75 37.06 1467.64 36.652 1467.41 36.34C1467.18 36.028 1466.8 35.872 1466.26 35.872C1465.84 35.872 1465.47 36.01 1465.14 36.286C1464.83 36.562 1464.63 36.988 1464.53 37.564ZM1473.89 43.216C1473.48 43.216 1473.11 43.144 1472.77 43C1472.45 42.868 1472.17 42.682 1471.94 42.442C1471.72 42.19 1471.54 41.902 1471.4 41.578C1471.28 41.254 1471.22 40.9 1471.22 40.516C1471.22 39.58 1471.62 38.848 1472.41 38.32C1473.2 37.792 1474.48 37.438 1476.25 37.258C1476.22 36.862 1476.1 36.55 1475.89 36.322C1475.68 36.082 1475.33 35.962 1474.84 35.962C1474.46 35.962 1474.07 36.034 1473.69 36.178C1473.32 36.322 1472.92 36.52 1472.48 36.772L1471.53 35.026C1472.11 34.678 1472.71 34.396 1473.33 34.18C1473.97 33.964 1474.64 33.856 1475.35 33.856C1476.5 33.856 1477.37 34.186 1477.97 34.846C1478.59 35.494 1478.89 36.508 1478.89 37.888V43H1476.73L1476.55 42.082H1476.48C1476.1 42.418 1475.69 42.694 1475.27 42.91C1474.85 43.114 1474.39 43.216 1473.89 43.216ZM1474.79 41.164C1475.09 41.164 1475.35 41.098 1475.56 40.966C1475.78 40.834 1476.01 40.648 1476.25 40.408V38.842C1475.31 38.974 1474.66 39.166 1474.3 39.418C1473.94 39.67 1473.76 39.97 1473.76 40.318C1473.76 40.606 1473.85 40.822 1474.03 40.966C1474.22 41.098 1474.48 41.164 1474.79 41.164ZM1481.13 43V34.072H1483.29L1483.47 35.638H1483.54C1483.87 35.026 1484.26 34.576 1484.71 34.288C1485.17 34 1485.62 33.856 1486.08 33.856C1486.33 33.856 1486.54 33.874 1486.69 33.91C1486.86 33.934 1487.01 33.976 1487.14 34.036L1486.71 36.322C1486.54 36.274 1486.39 36.238 1486.24 36.214C1486.1 36.19 1485.93 36.178 1485.74 36.178C1485.4 36.178 1485.05 36.298 1484.68 36.538C1484.32 36.778 1484.02 37.204 1483.78 37.816V43H1481.13ZM1492.02 43.216C1491.39 43.216 1490.81 43.114 1490.27 42.91C1489.74 42.694 1489.28 42.388 1488.88 41.992C1488.49 41.596 1488.18 41.11 1487.95 40.534C1487.72 39.946 1487.61 39.28 1487.61 38.536C1487.61 37.792 1487.73 37.132 1487.98 36.556C1488.24 35.968 1488.57 35.476 1488.99 35.08C1489.42 34.684 1489.92 34.384 1490.49 34.18C1491.05 33.964 1491.64 33.856 1492.25 33.856C1492.8 33.856 1493.29 33.946 1493.71 34.126C1494.14 34.306 1494.52 34.534 1494.86 34.81L1493.62 36.52C1493.2 36.172 1492.8 35.998 1492.41 35.998C1491.76 35.998 1491.25 36.226 1490.88 36.682C1490.51 37.138 1490.32 37.756 1490.32 38.536C1490.32 39.316 1490.51 39.934 1490.88 40.39C1491.27 40.846 1491.75 41.074 1492.32 41.074C1492.61 41.074 1492.89 41.014 1493.15 40.894C1493.43 40.762 1493.68 40.606 1493.92 40.426L1494.97 42.154C1494.52 42.538 1494.04 42.814 1493.53 42.982C1493.01 43.138 1492.51 43.216 1492.02 43.216ZM1496.53 43V30.382H1499.18V33.478L1499.05 35.08C1499.39 34.78 1499.78 34.504 1500.22 34.252C1500.66 33.988 1501.19 33.856 1501.8 33.856C1502.78 33.856 1503.48 34.174 1503.91 34.81C1504.35 35.446 1504.58 36.328 1504.58 37.456V43H1501.93V37.798C1501.93 37.15 1501.84 36.706 1501.66 36.466C1501.49 36.226 1501.22 36.106 1500.83 36.106C1500.5 36.106 1500.21 36.184 1499.97 36.34C1499.73 36.484 1499.46 36.694 1499.18 36.97V43H1496.53ZM1510.63 43V31.264H1518.03V33.496H1513.28V36.214H1517.35V38.446H1513.28V43H1510.63ZM1523.37 43.216C1522.81 43.216 1522.26 43.114 1521.74 42.91C1521.21 42.694 1520.74 42.388 1520.33 41.992C1519.94 41.596 1519.62 41.11 1519.38 40.534C1519.14 39.946 1519.02 39.28 1519.02 38.536C1519.02 37.792 1519.14 37.132 1519.38 36.556C1519.62 35.968 1519.94 35.476 1520.33 35.08C1520.74 34.684 1521.21 34.384 1521.74 34.18C1522.26 33.964 1522.81 33.856 1523.37 33.856C1523.94 33.856 1524.48 33.964 1524.99 34.18C1525.52 34.384 1525.98 34.684 1526.38 35.08C1526.79 35.476 1527.11 35.968 1527.35 36.556C1527.59 37.132 1527.71 37.792 1527.71 38.536C1527.71 39.28 1527.59 39.946 1527.35 40.534C1527.11 41.11 1526.79 41.596 1526.38 41.992C1525.98 42.388 1525.52 42.694 1524.99 42.91C1524.48 43.114 1523.94 43.216 1523.37 43.216ZM1523.37 41.074C1523.91 41.074 1524.32 40.846 1524.6 40.39C1524.87 39.934 1525.01 39.316 1525.01 38.536C1525.01 37.756 1524.87 37.138 1524.6 36.682C1524.32 36.226 1523.91 35.998 1523.37 35.998C1522.82 35.998 1522.41 36.226 1522.13 36.682C1521.87 37.138 1521.74 37.756 1521.74 38.536C1521.74 39.316 1521.87 39.934 1522.13 40.39C1522.41 40.846 1522.82 41.074 1523.37 41.074ZM1533.36 43.216C1532.79 43.216 1532.25 43.114 1531.72 42.91C1531.19 42.694 1530.72 42.388 1530.32 41.992C1529.92 41.596 1529.6 41.11 1529.36 40.534C1529.12 39.946 1529 39.28 1529 38.536C1529 37.792 1529.12 37.132 1529.36 36.556C1529.6 35.968 1529.92 35.476 1530.32 35.08C1530.72 34.684 1531.19 34.384 1531.72 34.18C1532.25 33.964 1532.79 33.856 1533.36 33.856C1533.92 33.856 1534.46 33.964 1534.98 34.18C1535.51 34.384 1535.97 34.684 1536.36 35.08C1536.77 35.476 1537.1 35.968 1537.34 36.556C1537.58 37.132 1537.7 37.792 1537.7 38.536C1537.7 39.28 1537.58 39.946 1537.34 40.534C1537.1 41.11 1536.77 41.596 1536.36 41.992C1535.97 42.388 1535.51 42.694 1534.98 42.91C1534.46 43.114 1533.92 43.216 1533.36 43.216ZM1533.36 41.074C1533.9 41.074 1534.31 40.846 1534.58 40.39C1534.86 39.934 1535 39.316 1535 38.536C1535 37.756 1534.86 37.138 1534.58 36.682C1534.31 36.226 1533.9 35.998 1533.36 35.998C1532.81 35.998 1532.39 36.226 1532.12 36.682C1531.85 37.138 1531.72 37.756 1531.72 38.536C1531.72 39.316 1531.85 39.934 1532.12 40.39C1532.39 40.846 1532.81 41.074 1533.36 41.074ZM1542.69 43.216C1542.14 43.216 1541.64 43.108 1541.18 42.892C1540.74 42.676 1540.35 42.37 1540.03 41.974C1539.72 41.566 1539.47 41.074 1539.29 40.498C1539.12 39.922 1539.04 39.268 1539.04 38.536C1539.04 37.804 1539.14 37.15 1539.35 36.574C1539.56 35.998 1539.84 35.512 1540.17 35.116C1540.52 34.708 1540.92 34.396 1541.36 34.18C1541.82 33.964 1542.28 33.856 1542.75 33.856C1543.25 33.856 1543.67 33.94 1543.99 34.108C1544.31 34.276 1544.63 34.504 1544.94 34.792L1544.84 33.424V30.382H1547.48V43H1545.32L1545.14 42.118H1545.07C1544.76 42.43 1544.39 42.694 1543.97 42.91C1543.55 43.114 1543.13 43.216 1542.69 43.216ZM1543.38 41.056C1543.67 41.056 1543.92 40.996 1544.15 40.876C1544.39 40.756 1544.62 40.546 1544.84 40.246V36.592C1544.6 36.376 1544.35 36.226 1544.1 36.142C1543.85 36.058 1543.6 36.016 1543.36 36.016C1542.94 36.016 1542.57 36.22 1542.24 36.628C1541.92 37.024 1541.76 37.648 1541.76 38.5C1541.76 39.388 1541.9 40.036 1542.17 40.444C1542.46 40.852 1542.86 41.056 1543.38 41.056Z" fill="#424242"/>
<g filter="url(#filter1_dd_7_698)">
<rect x="1579" y="14" width="118" height="46" rx="8" fill="white"/>
<path d="M1611 37.25C1613.46 37.25 1615.5 35.2461 1615.5 32.75C1615.5 30.2891 1613.46 28.25 1611 28.25C1608.5 28.25 1606.5 30.2891 1606.5 32.75C1606.5 35.2461 1608.5 37.25 1611 37.25ZM1614.13 38.375H1613.53C1612.76 38.7617 1611.91 38.9375 1611 38.9375C1610.09 38.9375 1609.21 38.7617 1608.43 38.375H1607.84C1605.23 38.375 1603.12 40.5195 1603.12 43.1211V44.5625C1603.12 45.5117 1603.86 46.25 1604.81 46.25H1617.19C1618.1 46.25 1618.88 45.5117 1618.88 44.5625V43.1211C1618.88 40.5195 1616.73 38.375 1614.13 38.375Z" fill="url(#paint1_linear_7_698)"/>
<path d="M1630.41 43V31.264H1633.06V40.768H1637.7V43H1630.41ZM1643.1 43.216C1642.54 43.216 1641.99 43.114 1641.46 42.91C1640.94 42.694 1640.47 42.388 1640.06 41.992C1639.66 41.596 1639.35 41.11 1639.11 40.534C1638.87 39.946 1638.75 39.28 1638.75 38.536C1638.75 37.792 1638.87 37.132 1639.11 36.556C1639.35 35.968 1639.66 35.476 1640.06 35.08C1640.47 34.684 1640.94 34.384 1641.46 34.18C1641.99 33.964 1642.54 33.856 1643.1 33.856C1643.67 33.856 1644.21 33.964 1644.72 34.18C1645.25 34.384 1645.71 34.684 1646.11 35.08C1646.52 35.476 1646.84 35.968 1647.08 36.556C1647.32 37.132 1647.44 37.792 1647.44 38.536C1647.44 39.28 1647.32 39.946 1647.08 40.534C1646.84 41.11 1646.52 41.596 1646.11 41.992C1645.71 42.388 1645.25 42.694 1644.72 42.91C1644.21 43.114 1643.67 43.216 1643.1 43.216ZM1643.1 41.074C1643.64 41.074 1644.05 40.846 1644.33 40.39C1644.6 39.934 1644.74 39.316 1644.74 38.536C1644.74 37.756 1644.6 37.138 1644.33 36.682C1644.05 36.226 1643.64 35.998 1643.1 35.998C1642.55 35.998 1642.14 36.226 1641.86 36.682C1641.6 37.138 1641.46 37.756 1641.46 38.536C1641.46 39.316 1641.6 39.934 1641.86 40.39C1642.14 40.846 1642.55 41.074 1643.1 41.074ZM1652.44 46.798C1651.91 46.798 1651.42 46.75 1650.96 46.654C1650.52 46.57 1650.12 46.438 1649.77 46.258C1649.44 46.078 1649.17 45.844 1648.98 45.556C1648.79 45.268 1648.69 44.926 1648.69 44.53C1648.69 43.81 1649.12 43.21 1649.97 42.73V42.658C1649.73 42.502 1649.53 42.304 1649.38 42.064C1649.22 41.824 1649.14 41.518 1649.14 41.146C1649.14 40.822 1649.24 40.516 1649.43 40.228C1649.62 39.928 1649.86 39.676 1650.15 39.472V39.4C1649.84 39.184 1649.56 38.878 1649.31 38.482C1649.07 38.074 1648.95 37.606 1648.95 37.078C1648.95 36.538 1649.05 36.07 1649.25 35.674C1649.46 35.266 1649.73 34.93 1650.06 34.666C1650.41 34.39 1650.81 34.186 1651.25 34.054C1651.69 33.922 1652.16 33.856 1652.64 33.856C1653.16 33.856 1653.63 33.928 1654.02 34.072H1657.28V35.998H1655.86C1655.94 36.13 1656.01 36.298 1656.06 36.502C1656.12 36.706 1656.15 36.928 1656.15 37.168C1656.15 37.684 1656.06 38.134 1655.88 38.518C1655.7 38.89 1655.44 39.202 1655.12 39.454C1654.81 39.694 1654.44 39.874 1654 39.994C1653.58 40.114 1653.13 40.174 1652.64 40.174C1652.29 40.174 1651.93 40.114 1651.56 39.994C1651.44 40.09 1651.35 40.186 1651.3 40.282C1651.26 40.378 1651.23 40.504 1651.23 40.66C1651.23 40.888 1651.33 41.056 1651.52 41.164C1651.72 41.272 1652.08 41.326 1652.58 41.326H1654.02C1655.13 41.326 1655.97 41.506 1656.54 41.866C1657.13 42.214 1657.42 42.79 1657.42 43.594C1657.42 44.062 1657.3 44.488 1657.06 44.872C1656.84 45.268 1656.51 45.604 1656.07 45.88C1655.64 46.168 1655.12 46.39 1654.51 46.546C1653.9 46.714 1653.21 46.798 1652.44 46.798ZM1652.64 38.572C1652.98 38.572 1653.27 38.452 1653.5 38.212C1653.74 37.96 1653.86 37.582 1653.86 37.078C1653.86 36.61 1653.74 36.256 1653.5 36.016C1653.27 35.764 1652.98 35.638 1652.64 35.638C1652.29 35.638 1651.99 35.758 1651.75 35.998C1651.53 36.238 1651.41 36.598 1651.41 37.078C1651.41 37.582 1651.53 37.96 1651.75 38.212C1651.99 38.452 1652.29 38.572 1652.64 38.572ZM1652.85 45.142C1653.45 45.142 1653.94 45.034 1654.33 44.818C1654.71 44.614 1654.9 44.356 1654.9 44.044C1654.9 43.768 1654.78 43.582 1654.54 43.486C1654.32 43.39 1653.98 43.342 1653.54 43.342H1652.62C1652.31 43.342 1652.05 43.33 1651.86 43.306C1651.67 43.294 1651.5 43.27 1651.36 43.234C1651.03 43.522 1650.87 43.816 1650.87 44.116C1650.87 44.452 1651.05 44.704 1651.41 44.872C1651.77 45.052 1652.25 45.142 1652.85 45.142ZM1658.87 43V34.072H1661.51V43H1658.87ZM1660.18 32.758C1659.74 32.758 1659.37 32.632 1659.08 32.38C1658.8 32.116 1658.65 31.78 1658.65 31.372C1658.65 30.964 1658.8 30.634 1659.08 30.382C1659.37 30.13 1659.74 30.004 1660.18 30.004C1660.64 30.004 1661 30.13 1661.28 30.382C1661.57 30.634 1661.71 30.964 1661.71 31.372C1661.71 31.78 1661.57 32.116 1661.28 32.38C1661 32.632 1660.64 32.758 1660.18 32.758ZM1663.84 43V34.072H1666L1666.18 35.206H1666.25C1666.64 34.846 1667.06 34.534 1667.51 34.27C1667.97 33.994 1668.5 33.856 1669.12 33.856C1670.09 33.856 1670.79 34.174 1671.22 34.81C1671.67 35.446 1671.89 36.328 1671.89 37.456V43H1669.24V37.798C1669.24 37.15 1669.15 36.706 1668.97 36.466C1668.8 36.226 1668.53 36.106 1668.14 36.106C1667.81 36.106 1667.52 36.184 1667.28 36.34C1667.04 36.484 1666.78 36.694 1666.49 36.97V43H1663.84Z" fill="url(#paint2_linear_7_698)"/>
</g>
</g>
<defs>
<filter id="filter0_dd_7_698" x="-43" y="-22" width="2000" height="158" filterUnits="userSpaceOnUse" color-interpolation-filters="sRGB">
<feFlood flood-opacity="0" result="BackgroundImageFix"/>
<feColorMatrix in="SourceAlpha" type="matrix" values="0 0 0 0 0 0 0 0 0 0 0 0 0 0 0 0 0 0 127 0" result="hardAlpha"/>
<feOffset dy="20"/>
<feGaussianBlur stdDeviation="20"/>
<feColorMatrix type="matrix" values="0 0 0 0 1 0 0 0 0 0.680498 0 0 0 0 0 0 0 0 0.29 0"/>
<feBlend mode="normal" in2="BackgroundImageFix" result="effect1_dropShadow_7_698"/>
<feColorMatrix in="SourceAlpha" type="matrix" values="0 0 0 0 0 0 0 0 0 0 0 0 0 0 0 0 0 0 127 0" result="hardAlpha"/>
<feOffset dy="5"/>
<feGaussianBlur stdDeviation="5"/>
<feColorMatrix type="matrix" values="0 0 0 0 1 0 0 0 0 0.680498 0 0 0 0 0 0 0 0 0.26 0"/>
<feBlend mode="normal" in2="effect1_dropShadow_7_698" result="effect2_dropShadow_7_698"/>
<feBlend mode="normal" in="SourceGraphic" in2="effect2_dropShadow_7_698" result="shape"/>
</filter>
<filter id="filter1_dd_7_698" x="1539" y="-6" width="198" height="126" filterUnits="userSpaceOnUse" color-interpolation-filters="sRGB">
<feFlood flood-opacity="0" result="BackgroundImageFix"/>
<feColorMatrix in="SourceAlpha" type="matrix" values="0 0 0 0 0 0 0 0 0 0 0 0 0 0 0 0 0 0 127 0" result="hardAlpha"/>
<feOffset dy="20"/>
<feGaussianBlur stdDeviation="20"/>
<feColorMatrix type="matrix" values="0 0 0 0 1 0 0 0 0 0.680498 0 0 0 0 0 0 0 0 0.29 0"/>
<feBlend mode="normal" in2="BackgroundImageFix" result="effect1_dropShadow_7_698"/>
<feColorMatrix in="SourceAlpha" type="matrix" values="0 0 0 0 0 0 0 0 0 0 0 0 0 0 0 0 0 0 127 0" result="hardAlpha"/>
<feOffset dy="5"/>
<feGaussianBlur stdDeviation="5"/>
<feColorMatrix type="matrix" values="0 0 0 0 1 0 0 0 0 0.680498 0 0 0 0 0 0 0 0 0.26 0"/>
<feBlend mode="normal" in2="effect1_dropShadow_7_698" result="effect2_dropShadow_7_698"/>
<feBlend mode="normal" in="SourceGraphic" in2="effect2_dropShadow_7_698" result="shape"/>
</filter>
<linearGradient id="paint0_linear_7_698" x1="232" y1="21.4998" x2="232" y2="38.9998" gradientUnits="userSpaceOnUse">
<stop stop-color="#FFD16D"/>
<stop offset="1" stop-color="#FF7A00"/>
</linearGradient>
<linearGradient id="paint1_linear_7_698" x1="1595.97" y1="5.64997" x2="1626.9" y2="7.01517" gradientUnits="userSpaceOnUse">
<stop stop-color="#FFB800"/>
<stop offset="1" stop-color="#FF8A00"/>
</linearGradient>
<linearGradient id="paint2_linear_7_698" x1="1609.67" y1="5.64997" x2="1693.66" y2="15.8443" gradientUnits="userSpaceOnUse">
<stop stop-color="#FFB800"/>
<stop offset="1" stop-color="#FF8A00"/>
</linearGradient>
</defs>
</svg>
